<svg xmlns="http://www.w3.org/2000/svg" width="21.23" height="25.215" viewBox="0 0 21.23 25.215">
  <g id="Group_107" data-name="Group 107" transform="translate(-839.072 -508.057)">
    <path id="Path_107" data-name="Path 107" d="M946.569,508.057c.2.047.4.089.592.142a3.917,3.917,0,0,1,2.9,3.75q.013,7.432,0,14.865a.986.986,0,1,1-1.969-.023q0-7.347,0-14.693a1.964,1.964,0,0,0-1.68-2.045,2.82,2.82,0,0,0-.466-.025q-5.3,0-10.609,0a1.624,1.624,0,0,1-.484-.062.966.966,0,0,1-.648-.875.98.98,0,0,1,.563-.934c.073-.035.149-.065.224-.1Z" transform="translate(-89.766)" fill="#023e8a"/>
    <path id="Path_108" data-name="Path 108" d="M839.073,589.31q0-3.311,0-6.623a3.928,3.928,0,0,1,3.193-3.914,4,4,0,0,1,.782-.072q4.666-.007,9.333,0a3.931,3.931,0,0,1,3.977,3.987q.005,6.623,0,13.246a3.932,3.932,0,0,1-3.976,3.989q-4.666.008-9.333,0a3.934,3.934,0,0,1-3.977-3.987Q839.068,592.622,839.073,589.31Zm15.317.006q0-3.274,0-6.548a1.975,1.975,0,0,0-2.093-2.1h-9.159a1.974,1.974,0,0,0-2.094,2.1q0,6.536,0,13.072a1.977,1.977,0,0,0,2.105,2.113h9.135a1.978,1.978,0,0,0,2.107-2.112Q854.391,592.578,854.39,589.317Z" transform="translate(0 -66.653)" fill="#023e8a"/>
  </g>
</svg>
