<svg xmlns="http://www.w3.org/2000/svg" width="21" height="18.457" viewBox="0 0 21 18.457">
  <g id="Group_114" data-name="Group 114" transform="translate(-217.941 -1769.734)">
    <path id="Path_120" data-name="Path 120" d="M217.941,1785.279v-.328a1.785,1.785,0,0,1,.226-.307,7.807,7.807,0,0,0,1.573-1.982,14.513,14.513,0,0,0,1.885-7.067c.028-1.312.006-2.624.008-3.936a.626.626,0,0,1,.7-.694h3.033c0-.215,0-.4,0-.583a.615.615,0,1,1,1.229,0c0,.19,0,.379,0,.575h3.076c0-.189,0-.365,0-.542a.618.618,0,1,1,1.23,0c0,.182,0,.363,0,.538h3.117c0-.2,0-.386,0-.57a.615.615,0,1,1,1.229,0c0,.189,0,.378,0,.584h2.93c.538,0,.762.221.762.755q0,7.853,0,15.705c0,.548-.22.767-.771.767H222.4c-.055,0-.109,0-.164,0a.619.619,0,0,1-.606-.6c0-.082,0-.164,0-.246,0-.531,0-1.062,0-1.613h-.24c-.882,0-1.763-.012-2.645.006A.768.768,0,0,1,217.941,1785.279Zm19.767-9.381H222.856a14.97,14.97,0,0,1-2.889,8.6H233.71c.734,0,.741.005,1.208-.574A13.548,13.548,0,0,0,237.708,1775.9Zm-2.458-3.7c0,.2,0,.385,0,.568a.616.616,0,1,1-1.23,0c0-.188,0-.377,0-.561H230.9c0,.2,0,.385,0,.569a.615.615,0,1,1-1.229,0c0-.189,0-.379,0-.571H226.6c0,.19,0,.367,0,.543a.618.618,0,1,1-1.23-.005c0-.181,0-.362,0-.541h-2.489v2.436h14.818V1772.2Zm2.452,9.519c-.019.012-.034.016-.038.025-.027.055-.052.111-.078.167a11.786,11.786,0,0,1-2.4,3.541.957.957,0,0,1-.716.283q-5.679-.009-11.359,0h-.237v1.219H237.7Z" transform="translate(0 0)" fill="#023e8a"/>
  </g>
</svg>
