<svg xmlns="http://www.w3.org/2000/svg" width="16.339" height="13.467" viewBox="0 0 16.339 13.467">
  <path id="Path_106" data-name="Path 106" d="M974.1,600.347c.153-.175.287-.338.431-.492a4.577,4.577,0,0,1,2.846-1.526,4.281,4.281,0,0,1,4.548,2.725,4.819,4.819,0,0,1-.237,4.091,11.407,11.407,0,0,1-2.27,2.964,25.162,25.162,0,0,1-4.263,3.329,1.866,1.866,0,0,1-2.1.007,23.381,23.381,0,0,1-5.1-4.211,8.369,8.369,0,0,1-1.809-2.994,4.637,4.637,0,0,1,2.025-5.39,4.333,4.333,0,0,1,4.818.392,11.46,11.46,0,0,1,.962.941C974,600.23,974.043,600.282,974.1,600.347Z" transform="translate(-965.934 -598.297)" fill="red"/>
</svg>
