<svg xmlns="http://www.w3.org/2000/svg" width="21" height="20.991" viewBox="0 0 21 20.991">
  <g id="Group_112" data-name="Group 112" transform="translate(-1018.524 -1810.365)">
    <path id="Path_114" data-name="Path 114" d="M1039.524,1820.245v1.23c-.012.065-.027.13-.036.2-.072.492-.112.992-.22,1.476a10.471,10.471,0,0,1-8.755,8.1c-.289.042-.579.074-.869.111h-1.23c-.391-.053-.783-.093-1.171-.162a10.033,10.033,0,0,1-6.341-3.712,10.286,10.286,0,0,1-1.667-10.377,1.9,1.9,0,0,0,.061-.285,2.777,2.777,0,0,0,.183-.291,10.5,10.5,0,0,1,8.618-6.117,10.035,10.035,0,0,1,5.854,1.185,10.326,10.326,0,0,1,5.408,7.435C1039.435,1819.433,1039.47,1819.841,1039.524,1820.245Zm-2.662,6.475c-.193-.186-.381-.384-.587-.562a.7.7,0,0,1-.251-.614c.016-.307.011-.615,0-.922a.845.845,0,0,0-.078-.331c-.272-.558-.524-1.129-.839-1.662a3.28,3.28,0,0,1-.486-2.066c.009-.087-.025-.231-.085-.264-.261-.143-.446-.428-.781-.431a.5.5,0,0,0-.12.026c-.318.079-.634.166-.954.233a.6.6,0,0,1-.336-.018c-.793-.331-1.584-.668-2.368-1.019a.449.449,0,0,1-.237-.278q-.194-1.2-.341-2.412a.546.546,0,0,1,.14-.38c.3-.328.615-.642.942-.941a.632.632,0,0,1,.379-.156c.649-.016,1.3,0,1.947-.009a.426.426,0,0,1,.394.208c.163.252.326.505.5.748a.4.4,0,0,0,.224.146c.436.082.878.131,1.311.226a1.4,1.4,0,0,0,.815-.068c.427-.157.861-.293,1.33-.45l-1.054-1.407c-.265.176-.5.345-.743.487a.577.577,0,0,1-.36.091,16.261,16.261,0,0,1-2.507-.589.679.679,0,0,0-.429-.012,2.664,2.664,0,0,1-2.23-.067.194.194,0,0,0-.02-.006c-.3-.1-.38-.29-.243-.573.208-.43.426-.855.637-1.283a.406.406,0,0,1,.409-.246c.335.007.67-.012,1,.006s.562-.188.855-.315c-1.683-.856-5.272-.982-6.7-.217a3.312,3.312,0,0,0,.552.217c.563.109,1.13.192,1.7.287.386.065.489.234.368.6-.093.285-.193.568-.284.854a.46.46,0,0,1-.316.319c-.234.075-.47.144-.7.236a.532.532,0,0,0-.24.195c-.286.457-.555.925-.841,1.382a.915.915,0,0,1-.28.286c-.51.318-1.026.624-1.545.927a.94.94,0,0,1-.322.119q-.951.147-1.9.275c-.12.016-.152.061-.164.179a.72.72,0,0,0,.289.732.893.893,0,0,1,.244.247,1.269,1.269,0,0,1,.166.4,2.076,2.076,0,0,1,.006.416l.056.022c.112-.118.219-.241.336-.354.261-.253.5-.213.667.114.152.3.307.594.445.9a.323.323,0,0,0,.351.226c.628-.016,1.257,0,1.885-.009a.478.478,0,0,1,.466.262c.264.455.534.906.814,1.35a.342.342,0,0,0,.237.135c.3.016.6.006.9.007.4,0,.534.157.457.55-.1.482-.179.967-.3,1.443a1.222,1.222,0,0,1-.254.471,3.922,3.922,0,0,1-.593.594,1.326,1.326,0,0,0-.576,1.371.465.465,0,0,1-.23.469c-.337.245-.664.5-1,.745a.34.34,0,0,0-.165.319c.01.437.009.875,0,1.312-.005.339-.209.479-.534.375-.292-.094-.581-.2-.874-.288a.519.519,0,0,1-.356-.334c-.195-.5-.405-1-.6-1.5a1.35,1.35,0,0,1-.085-.457c-.008-.936,0-1.872,0-2.808v-.226c-.455-.09-.889-.18-1.324-.26a.554.554,0,0,1-.449-.339,5.039,5.039,0,0,0-.33-.658,2.549,2.549,0,0,1-.36-1.482.979.979,0,0,1,.361-.84,1.291,1.291,0,0,0,.143-.152c-.067-.048-.121-.088-.177-.126-.477-.318-.952-.64-1.433-.952a.7.7,0,0,1-.312-.411c-.066-.225-.147-.445-.233-.7a9.78,9.78,0,0,0,17.193,8.7Zm.381-.57a9.66,9.66,0,0,0,.451-9.793c-.592.2-1.184.4-1.781.592a.871.871,0,0,1-.379.042c-.573-.085-1.143-.2-1.717-.276a.846.846,0,0,1-.7-.452,1.468,1.468,0,0,0-.449-.617,1.776,1.776,0,0,0-.765-.033,2.639,2.639,0,0,0-.97.037c-.286.123-.487.445-.725.679,0,0-.013.009-.014.014a.635.635,0,0,0-.066.233c.077.6.17,1.189.246,1.785a.24.24,0,0,0,.17.22c.628.265,1.253.539,1.882.8a.484.484,0,0,0,.273.022c.339-.075.676-.163,1.012-.253a.581.581,0,0,1,.522.091c.284.2.575.393.868.58a.46.46,0,0,1,.229.427c0,.341-.009.683,0,1.024a1,1,0,0,0,.091.389c.253.529.491,1.069.79,1.572a3.386,3.386,0,0,1,.515,2.2.185.185,0,0,0,0,.082.529.529,0,0,0,.078.177C1036.944,1825.846,1037.089,1825.99,1037.243,1826.151Zm-13.895-6.425a.311.311,0,0,0-.066.035c-.392.39-.786.779-1.172,1.175a.4.4,0,0,0-.076.219,1.8,1.8,0,0,0,.275,1.228,2.986,2.986,0,0,1,.231.456.3.3,0,0,0,.255.2c.43.077.857.166,1.285.253.321.065.4.162.4.486,0,.635.036,1.273-.008,1.905a5.283,5.283,0,0,0,.52,2.711.614.614,0,0,0,.543.354c0-.372.01-.727,0-1.081a.557.557,0,0,1,.265-.536c.182-.12.352-.259.525-.391.2-.153.474-.271.576-.475a1.7,1.7,0,0,0,.033-.745.556.556,0,0,1,.18-.437c.38-.373.755-.752,1.13-1.13.043-.043.1-.087.115-.14.085-.39.16-.782.243-1.2-.311,0-.59,0-.868,0a.466.466,0,0,1-.452-.254c-.263-.455-.541-.9-.805-1.355a.256.256,0,0,0-.257-.148c-.663.007-1.325,0-1.988.006a.443.443,0,0,1-.453-.278C1023.641,1820.3,1023.493,1820.014,1023.348,1819.725Zm-1.333-.231c.032-.345.068-.645-.243-.855a.871.871,0,0,1-.258-.261,1.118,1.118,0,0,1-.175-.436,7.351,7.351,0,0,1-.007-.819c0-.314.1-.428.415-.475.418-.062.837-.126,1.257-.175a4.2,4.2,0,0,0,1.674-.52,3.36,3.36,0,0,0,1.531-1.568,1.681,1.681,0,0,1,1.349-1.1.124.124,0,0,0,.058-.018c.039-.032.091-.063.109-.107.053-.13.091-.265.141-.415-.265-.045-.5-.1-.748-.125a3.043,3.043,0,0,1-1.78-.682.238.238,0,0,0-.294-.024,9.775,9.775,0,0,0-4.924,4.9.4.4,0,0,0-.02.266c.138.443.288.881.439,1.32a.34.34,0,0,0,.1.168C1021.085,1818.876,1021.534,1819.173,1022.015,1819.494Zm13.825-5.7a1.92,1.92,0,0,1-.17-.122,10.225,10.225,0,0,0-1.954-1.412.306.306,0,0,0-.354,0,3.245,3.245,0,0,1-2.228.557.186.186,0,0,0-.081,0,.147.147,0,0,0-.082.049c-.133.258-.262.517-.389.771a1.151,1.151,0,0,0,1,.1,4.238,4.238,0,0,1,.754-.186.777.777,0,0,1,.4.012,14.5,14.5,0,0,0,2.378.594.306.306,0,0,0,.195-.015C1035.475,1814.051,1035.634,1813.936,1035.84,1813.8Z" transform="translate(0 0)" fill="#023e8a"/>
  </g>
</svg>
