<svg xmlns="http://www.w3.org/2000/svg" width="20.716" height="14.574" viewBox="0 0 20.716 14.574">
  <g id="Group_110" data-name="Group 110" transform="translate(829.577 -1791.027)">
    <path id="Path_111" data-name="Path 111" d="M-829.577,1792.646a4.836,4.836,0,0,1,.366-.863,1.735,1.735,0,0,1,1.488-.756h16.911a1.78,1.78,0,0,1,1.751,1.036,2.029,2.029,0,0,1,.19.836q.018,5.412.006,10.824a1.822,1.822,0,0,1-1.927,1.871q-6.969,0-13.937,0c-.944,0-1.888-.02-2.832.005a1.874,1.874,0,0,1-2-1.587.145.145,0,0,0-.017-.037Zm2.093-.4c.061.065.094.1.131.141q3.391,3.374,6.783,6.747a1.82,1.82,0,0,0,2.713-.012q3.379-3.357,6.754-6.719c.044-.043.083-.092.141-.158Zm.116,12.117h16.289l-5.106-5.21c-.3.3-.57.593-.854.869a2.994,2.994,0,0,1-3.028.8,2.989,2.989,0,0,1-1.365-.83c-.269-.272-.536-.546-.825-.842Zm-.981-11.261v10.431l5.126-5.223Zm18.264.053-.045-.029-5.149,5.232,5.194,5.162Z" transform="translate(0 0)" fill="#023e8a"/>
  </g>
</svg>
