<svg xmlns="http://www.w3.org/2000/svg" width="16.792" height="27.963" viewBox="0 0 16.792 27.963">
  <g id="Group_113" data-name="Group 113" transform="translate(-412.982 -2118.039)">
    <path id="Path_116" data-name="Path 116" d="M415.424,2146a7.193,7.193,0,0,1-1.281-.563,2.724,2.724,0,0,1-1.161-2.4c.006-2.312,0-4.623,0-6.934q0-7.534,0-15.068a2.866,2.866,0,0,1,1.128-2.423,2.818,2.818,0,0,1,1.78-.575q4.3.008,8.6,0c.792,0,1.584,0,2.375,0a2.815,2.815,0,0,1,2.9,2.832c.007.246,0,.491,0,.737q0,10.7,0,21.4a2.752,2.752,0,0,1-1.161,2.427,7.19,7.19,0,0,1-1.281.563Zm-1.038-13.98q0,5.5,0,11a1.416,1.416,0,0,0,1.564,1.575q5.42,0,10.84,0a1.42,1.42,0,0,0,1.578-1.59q0-10.989,0-21.977a1.42,1.42,0,0,0-1.578-1.589q-5.42,0-10.84,0a2.073,2.073,0,0,0-.513.048,1.4,1.4,0,0,0-1.05,1.472Q414.385,2126.494,414.386,2132.022Z" fill="#023e8a"/>
    <path id="Path_117" data-name="Path 117" d="M519.709,2464.44a1.393,1.393,0,0,1-1.391-1.387,1.4,1.4,0,1,1,2.79.008A1.391,1.391,0,0,1,519.709,2464.44Z" transform="translate(-98.335 -320.777)" fill="#023e8a"/>
    <path id="Path_118" data-name="Path 118" d="M527.416,2154.549c-.445,0-.891.005-1.336,0a.694.694,0,1,1,0-1.385q1.363-.011,2.726,0a.693.693,0,1,1,0,1.384C528.343,2154.555,527.879,2154.549,527.416,2154.549Z" transform="translate(-104.891 -32.785)" fill="#023e8a"/>
    <path id="Path_119" data-name="Path 119" d="M490.922,2154.639a.691.691,0,1,1,.692-.7A.716.716,0,0,1,490.922,2154.639Z" transform="translate(-72.1 -32.877)" fill="#023e8a"/>
  </g>
</svg>
