<svg id="Group_93" data-name="Group 93" xmlns="http://www.w3.org/2000/svg" width="45.3" height="44.86" viewBox="0 0 45.3 44.86">
  <path id="Path_90" data-name="Path 90" d="M1457.537,296.505v19.326l-6.022-5.907a11.021,11.021,0,0,0-5,9.231h-11.183a22.167,22.167,0,0,1,8.115-17.15l-5.057-4.962Z" transform="translate(-1434.888 -296.505)" fill="#237efb"/>
  <path id="Path_91" data-name="Path 91" d="M1563.195,320.8h-19.327l5.909-6.022a11.024,11.024,0,0,0-9.232-5V298.592a22.17,22.17,0,0,1,17.151,8.115l4.962-5.057Z" transform="translate(-1517.894 -298.151)" fill="#1734a8"/>
  <path id="Path_92" data-name="Path 92" d="M1471.589,419.5a22.178,22.178,0,0,1-32.849-1.6l-4.961,5.058-.537-19.152h19.326l-5.908,6.023a11.014,11.014,0,0,0,17.026,1.771Z" transform="translate(-1433.242 -381.157)" fill="#a3a3a3"/>
</svg>
