<svg xmlns="http://www.w3.org/2000/svg" width="19.128" height="26.484" viewBox="0 0 19.128 26.484">
  <g id="Group_111" data-name="Group 111" transform="translate(-833.39 -1827.644)">
    <path id="Path_112" data-name="Path 112" d="M838.185,1837.116h11.271a2.858,2.858,0,0,1,3.062,3.029q0,4.252,0,8.5a5.388,5.388,0,0,1-4.477,5.383,5.6,5.6,0,0,1-1.038.09q-4.046.01-8.091,0a5.416,5.416,0,0,1-5.5-5.456c0-2.805.039-5.611-.016-8.415a2.97,2.97,0,0,1,2.882-3.153c0-.113,0-.228,0-.343.017-1.17-.04-2.348.067-3.51a6.264,6.264,0,0,1,5.082-5.449,6.937,6.937,0,0,1,5.788,1.242,6.2,6.2,0,0,1,2.437,4.858.945.945,0,0,1-.925,1.047.954.954,0,0,1-.983-1.025,4.489,4.489,0,0,0-4.47-4.366,5.271,5.271,0,0,0-2.474.417,4.344,4.344,0,0,0-2.6,3.961C838.154,1834.98,838.185,1836.032,838.185,1837.116Zm4.783,1.89h-6.539a.973.973,0,0,0-1.111,1.108q0,4.267,0,8.534a3.514,3.514,0,0,0,3.62,3.586q4.016,0,8.032,0a3.516,3.516,0,0,0,3.635-3.6q0-4.252,0-8.5a.982.982,0,0,0-1.129-1.122Z" transform="translate(0 0)" fill="#023e8a"/>
    <path id="Path_113" data-name="Path 113" d="M970.882,2088.648c0-.462-.01-.924,0-1.386a.479.479,0,0,0-.217-.446,1.9,1.9,0,0,1-.547-2.377,1.928,1.928,0,0,1,3.649.967,1.806,1.806,0,0,1-.752,1.414.476.476,0,0,0-.212.448c.009.924.006,1.848,0,2.771a.969.969,0,1,1-1.928-.006C970.88,2089.572,970.882,2089.11,970.882,2088.648Z" transform="translate(-128.885 -241.661)" fill="#023e8a"/>
  </g>
</svg>
