<svg xmlns="http://www.w3.org/2000/svg" width="21" height="23.898" viewBox="0 0 21 23.898">
  <g id="Group_108" data-name="Group 108" transform="translate(-1108.609 -1862.798)">
    <path id="Path_109" data-name="Path 109" d="M1197.54,1862.8c.477.1.966.167,1.428.315a6.285,6.285,0,1,1-2.634-.275,1.558,1.558,0,0,0,.18-.041Zm-.5,1.4a4.9,4.9,0,1,0,4.891,4.9A4.908,4.908,0,0,0,1197.037,1864.2Z" transform="translate(-77.918 0)" fill="#023e8a"/>
    <path id="Path_110" data-name="Path 110" d="M1119.093,2146.129h-9.611c-.627,0-.882-.255-.873-.874a9.194,9.194,0,0,1,7.6-8.886,8.646,8.646,0,0,1,1.32-.126c1.026-.019,2.054-.037,3.079,0a8.955,8.955,0,0,1,7.986,4.993,8.667,8.667,0,0,1,1.017,4.1.711.711,0,0,1-.788.8Zm9.1-1.41c-.061-.358-.107-.688-.175-1.014a7.735,7.735,0,0,0-7.358-6.067c-1.042-.013-2.084-.019-3.126.006a6.767,6.767,0,0,0-1.408.167,7.623,7.623,0,0,0-5.814,5.466,14.635,14.635,0,0,0-.3,1.442Z" transform="translate(0 -259.434)" fill="#023e8a"/>
  </g>
</svg>
